<svg version="1.1" xmlns="http://www.w3.org/2000/svg" viewBox="0 0 2264.0666107671295 1304.9273540739914" width="6792.199832301389" height="3914.7820622219742">
  <!-- svg-source:excalidraw -->
  
  <defs>
    <style class="style-fonts">
      @font-face {
        font-family: "Virgil";
        src: url("https://excalidraw.com/Virgil.woff2");
      }
      @font-face {
        font-family: "Cascadia";
        src: url("https://excalidraw.com/Cascadia.woff2");
      }
    </style>
  </defs>
  <g stroke-linecap="round" transform="translate(408.6640176079379 696.6046155279976) rotate(0 107.7617139137194 52.43761971694386)"><path d="M26.22 0 M26.22 0 C63.76 0.39, 97.38 -1.57, 189.3 0 M26.22 0 C61.01 -1.48, 98.04 -1.29, 189.3 0 M189.3 0 C205.24 1.59, 216.21 6.95, 215.52 26.22 M189.3 0 C207.71 0.53, 215.74 8.19, 215.52 26.22 M215.52 26.22 C215.98 38.63, 213.82 49, 215.52 78.66 M215.52 26.22 C215.63 38.59, 214.91 49.36, 215.52 78.66 M215.52 78.66 C214.08 96.59, 207.36 104.1, 189.3 104.88 M215.52 78.66 C215.23 97.55, 206.16 105.02, 189.3 104.88 M189.3 104.88 C138.97 103.71, 86.99 104.52, 26.22 104.88 M189.3 104.88 C144.54 103.97, 100.31 104.08, 26.22 104.88 M26.22 104.88 C9 105.72, 0.53 96.4, 0 78.66 M26.22 104.88 C9.37 103.35, -1.46 95.24, 0 78.66 M0 78.66 C1.73 56.77, 0.61 36.91, 0 26.22 M0 78.66 C0.32 57.34, 0.04 36.56, 0 26.22 M0 26.22 C-0.5 8.55, 9.01 -0.92, 26.22 0 M0 26.22 C1.96 9.05, 6.77 -1.17, 26.22 0" stroke="#364fc7" stroke-width="1" fill="none"></path></g><g transform="translate(441.3007315216573 726.5422352449414) rotate(0 75.125 22.5)"><text x="75.125" y="0" font-family="Virgil, Segoe UI Emoji" font-size="36px" fill="#364fc7" text-anchor="middle" style="white-space: pre;" direction="ltr" dominant-baseline="text-before-edge">Frontend</text></g><g stroke-linecap="round" transform="translate(501.7506011778769 676.4756081060506) rotate(89.99999999999994 400 115)"><path d="M32 0 M32 0 C179.02 -0.91, 327.03 -0.75, 768 0 M32 0 C323.99 0.57, 616.13 0.55, 768 0 M768 0 C790.18 0.53, 800.26 11.21, 800 32 M768 0 C787.8 -1.46, 799.1 12.52, 800 32 M800 32 C798.75 69.14, 798.84 107.73, 800 198 M800 32 C798.03 64.8, 797.85 98.3, 800 198 M800 198 C799.81 219.6, 788.41 231.71, 768 230 M800 198 C800.31 217.36, 788.17 229.5, 768 230 M768 230 C501.22 227.18, 233.93 228.01, 32 230 M768 230 C577.84 232.2, 388.44 232.15, 32 230 M32 230 C11.96 229.1, -0.65 217.67, 0 198 M32 230 C8.83 230.02, 1.77 221.34, 0 198 M0 198 C-0.01 153.87, -0.67 109.83, 0 32 M0 198 C0.32 164.25, -0.65 127.76, 0 32 M0 32 C1.14 9.62, 10.3 1.12, 32 0 M0 32 C-0.73 8.82, 12.83 1.62, 32 0" stroke="#364fc7" stroke-width="1" fill="none"></path></g><g transform="translate(781.600599651998 768.9756081060506) rotate(89.99999999999994 120.1500015258789 22.5)"><text x="120.1500015258789" y="0" font-family="Virgil, Segoe UI Emoji" font-size="36px" fill="#364fc7" text-anchor="middle" style="white-space: pre;" direction="ltr" dominant-baseline="text-before-edge">API Gateway</text></g><g stroke-linecap="round" transform="translate(1093.4549568496216 541.5262048059326) rotate(0 136 52.5)"><path d="M26.25 0 M26.25 0 C100.41 -1.48, 175.19 0.2, 245.75 0 M26.25 0 C86.78 -0.46, 146.87 0.3, 245.75 0 M245.75 0 C263.02 0.6, 270.22 8.7, 272 26.25 M245.75 0 C262.67 -0.31, 272.06 6.64, 272 26.25 M272 26.25 C272.45 40.45, 272.06 54.94, 272 78.75 M272 26.25 C272.15 42.05, 272.37 58.17, 272 78.75 M272 78.75 C271.52 98.04, 261.44 105.24, 245.75 105 M272 78.75 C270.9 94.7, 264.41 105.32, 245.75 105 M245.75 105 C187.7 105.02, 125.36 105.71, 26.25 105 M245.75 105 C201.43 106.17, 156.51 106.55, 26.25 105 M26.25 105 C8.58 104.39, 0.46 95.74, 0 78.75 M26.25 105 C9.66 104.34, 1.4 96.8, 0 78.75 M0 78.75 C1.24 62.32, 1.25 49.64, 0 26.25 M0 78.75 C-0.73 62.01, -0.6 43.72, 0 26.25 M0 26.25 C1.48 10.13, 7.28 0.46, 26.25 0 M0 26.25 C-0.04 7.13, 7.18 0.11, 26.25 0" stroke="#5f3dc4" stroke-width="1" fill="none"></path></g><g transform="translate(1187.9466217360962 571.5262048059326) rotate(0 41.50833511352539 22.5)"><text x="41.50833511352539" y="0" font-family="Virgil, Segoe UI Emoji" font-size="36px" fill="#5f3dc4" text-anchor="middle" style="white-space: pre;" direction="ltr" dominant-baseline="text-before-edge">Cart</text></g><g stroke-linecap="round" transform="translate(1090.6902450072027 817.190489099543) rotate(0 136 52.5)"><path d="M26.25 0 M26.25 0 C112.67 -0.45, 195.31 -0.3, 245.75 0 M26.25 0 C92.49 1.23, 158.71 1.57, 245.75 0 M245.75 0 C264.11 0.25, 271.32 7.35, 272 26.25 M245.75 0 C262.93 1.11, 271.76 8.41, 272 26.25 M272 26.25 C271.24 42.45, 272.36 59.85, 272 78.75 M272 26.25 C272.46 45.32, 272.28 63.41, 272 78.75 M272 78.75 C273.11 95.14, 263.09 105.39, 245.75 105 M272 78.75 C270.33 97.68, 263.23 106.46, 245.75 105 M245.75 105 C167.61 107.72, 92.42 104.84, 26.25 105 M245.75 105 C180.54 107.35, 114.4 106.34, 26.25 105 M26.25 105 C8.91 106.69, 1.21 95, 0 78.75 M26.25 105 C9.45 104.58, -0.98 94.71, 0 78.75 M0 78.75 C1.72 66.18, 0.01 53.6, 0 26.25 M0 78.75 C0.12 64.63, 0.18 49.97, 0 26.25 M0 26.25 C0.48 8.4, 9.43 -1.61, 26.25 0 M0 26.25 C1.1 8.29, 10.04 -1.09, 26.25 0" stroke="#5f3dc4" stroke-width="1" fill="none"></path></g><g transform="translate(1178.0485785948492 847.190489099543) rotate(0 48.641666412353516 22.5)"><text x="48.641666412353516" y="0" font-family="Virgil, Segoe UI Emoji" font-size="36px" fill="#5f3dc4" text-anchor="middle" style="white-space: pre;" direction="ltr" dominant-baseline="text-before-edge">Order</text></g><g stroke-linecap="round" transform="translate(1091.7741658045586 953.9506533883455) rotate(0 136 52.5)"><path d="M26.25 0 M26.25 0 C88.49 -0.69, 150.82 0.1, 245.75 0 M26.25 0 C87.46 1.73, 148.55 1.18, 245.75 0 M245.75 0 C264.21 -0.4, 273.12 7.8, 272 26.25 M245.75 0 C264.47 2.21, 274.05 10.81, 272 26.25 M272 26.25 C270.78 37.72, 272.2 47.88, 272 78.75 M272 26.25 C271.69 45.71, 271.68 63.94, 272 78.75 M272 78.75 C272.22 96.72, 263.55 105.51, 245.75 105 M272 78.75 C271.19 95.9, 263.5 102.79, 245.75 105 M245.75 105 C190.17 102.91, 132.55 102.76, 26.25 105 M245.75 105 C159.24 105.08, 73.3 106.08, 26.25 105 M26.25 105 C8.38 103.52, 0.72 97.25, 0 78.75 M26.25 105 C7.8 105.61, 1.24 94.67, 0 78.75 M0 78.75 C-0.93 60.91, -0.97 44.79, 0 26.25 M0 78.75 C0.68 65.69, -0.58 51.36, 0 26.25 M0 26.25 C-0.01 8.66, 7.7 -0.57, 26.25 0 M0 26.25 C0.11 9.95, 10.5 -1.45, 26.25 0" stroke="#5f3dc4" stroke-width="1" fill="none"></path></g><g transform="translate(1164.882499392205 983.9506533883455) rotate(0 62.891666412353516 22.5)"><text x="62.891666412353516" y="0" font-family="Virgil, Segoe UI Emoji" font-size="36px" fill="#5f3dc4" text-anchor="middle" style="white-space: pre;" direction="ltr" dominant-baseline="text-before-edge">Shipping</text></g><g stroke-linecap="round" transform="translate(1090.871722341379 1090.3216438862055) rotate(0 136 52.5)"><path d="M26.25 0 M26.25 0 C104.05 -1.7, 180.48 -2.07, 245.75 0 M26.25 0 C101.15 0.8, 176.96 0.91, 245.75 0 M245.75 0 C262.36 1.74, 273.22 7.97, 272 26.25 M245.75 0 C263.13 -0.01, 271.89 7.54, 272 26.25 M272 26.25 C273.54 39.25, 272.43 55.67, 272 78.75 M272 26.25 C271.49 37.36, 273 46.66, 272 78.75 M272 78.75 C270.4 97.03, 262.31 105.56, 245.75 105 M272 78.75 C273.24 97.08, 265.21 104.08, 245.75 105 M245.75 105 C173.85 105.24, 100.78 102.24, 26.25 105 M245.75 105 C187.94 105.87, 131.45 105.31, 26.25 105 M26.25 105 C9.69 104.38, -0.3 95.45, 0 78.75 M26.25 105 C9.65 103.67, 1.02 96.55, 0 78.75 M0 78.75 C0.64 62.17, -0.87 46.46, 0 26.25 M0 78.75 C-0.62 62.13, -0.03 44.88, 0 26.25 M0 26.25 C1.46 7.32, 9.35 0.96, 26.25 0 M0 26.25 C0.2 8.67, 8 -1.72, 26.25 0" stroke="#5f3dc4" stroke-width="1" fill="none"></path></g><g transform="translate(1154.7050582178438 1120.3216438862055) rotate(0 72.16666412353516 22.5)"><text x="72.16666412353516" y="0" font-family="Virgil, Segoe UI Emoji" font-size="36px" fill="#5f3dc4" text-anchor="middle" style="white-space: pre;" direction="ltr" dominant-baseline="text-before-edge">Payment</text></g><g stroke-linecap="round" transform="translate(1089.3747418743758 394.42582603257136) rotate(0 136 52.5)"><path d="M26.25 0 M26.25 0 C91.76 -3.05, 161.19 -1.24, 245.75 0 M26.25 0 C89.83 -1.58, 152.87 -0.45, 245.75 0 M245.75 0 C263.27 -0.16, 272.01 10.42, 272 26.25 M245.75 0 C264.41 -0.25, 270.96 6.63, 272 26.25 M272 26.25 C270.48 47.01, 272.64 66.8, 272 78.75 M272 26.25 C272.12 44.66, 273.18 63.82, 272 78.75 M272 78.75 C272.85 97.57, 264.55 105.56, 245.75 105 M272 78.75 C270.74 95.43, 261.85 106.09, 245.75 105 M245.75 105 C177.28 106.88, 109.96 107.82, 26.25 105 M245.75 105 C175.51 106.33, 106.4 105.96, 26.25 105 M26.25 105 C8.12 105.88, 1.7 96.81, 0 78.75 M26.25 105 C10.69 105.09, -1.75 97.82, 0 78.75 M0 78.75 C2.31 61.79, -0.49 45.62, 0 26.25 M0 78.75 C-0.1 62.81, 0.2 47.1, 0 26.25 M0 26.25 C-0.82 7.15, 8.35 -0.75, 26.25 0 M0 26.25 C1.75 6.99, 7.74 -0.64, 26.25 0" stroke="#5f3dc4" stroke-width="1" fill="none"></path></g><g transform="translate(1155.8747418743758 424.42582603257136) rotate(0 69.5 22.5)"><text x="69.5" y="0" font-family="Virgil, Segoe UI Emoji" font-size="36px" fill="#5f3dc4" text-anchor="middle" style="white-space: pre;" direction="ltr" dominant-baseline="text-before-edge">Catalog</text></g><g stroke-linecap="round" transform="translate(1092.7243810251496 679.2485272546786) rotate(0 136 52.5)"><path d="M26.25 0 M26.25 0 C92.63 -0.01, 161.89 2.2, 245.75 0 M26.25 0 C69.84 2.22, 114.04 1.05, 245.75 0 M245.75 0 C262.82 -1.14, 273.58 10.09, 272 26.25 M245.75 0 C261.6 -0.27, 269.9 8.93, 272 26.25 M272 26.25 C273.86 46.07, 272.26 65.3, 272 78.75 M272 26.25 C271.45 45.87, 271.5 63.3, 272 78.75 M272 78.75 C272.71 96.69, 265.15 105.27, 245.75 105 M272 78.75 C270.27 95.7, 261.64 104.11, 245.75 105 M245.75 105 C173.27 105.12, 97.02 105.48, 26.25 105 M245.75 105 C177.97 105.57, 109.97 104.92, 26.25 105 M26.25 105 C8.22 106.76, -0.72 95.06, 0 78.75 M26.25 105 C7.68 106.24, -1.81 98.16, 0 78.75 M0 78.75 C-1.62 60.9, 0.37 46.83, 0 26.25 M0 78.75 C0.42 67.1, 0.76 56.76, 0 26.25 M0 26.25 C1.22 7.98, 10.54 -1.85, 26.25 0 M0 26.25 C0.1 10.39, 6.62 -0.91, 26.25 0" stroke="#5f3dc4" stroke-width="1" fill="none"></path></g><g transform="translate(1146.5077138498566 709.2485272546786) rotate(0 82.21666717529297 22.5)"><text x="82.21666717529297" y="0" font-family="Virgil, Segoe UI Emoji" font-size="36px" fill="#5f3dc4" text-anchor="middle" style="white-space: pre;" direction="ltr" dominant-baseline="text-before-edge">Inventory</text></g><g stroke-linecap="round" transform="translate(1524.3320295503484 678.0992526332902) rotate(0 66.8833555961337 20.191201689398852)"><path d="M41.48 0.99 C51.14 -0.43, 65.89 -0.68, 76.91 -0.2 C87.94 0.28, 99 1.72, 107.61 3.85 C116.22 5.98, 124.17 9.34, 128.58 12.59 C132.98 15.84, 135.74 20.04, 134.03 23.37 C132.33 26.7, 125.38 29.99, 118.35 32.57 C111.32 35.14, 102.03 37.54, 91.86 38.81 C81.7 40.08, 68.41 40.79, 57.36 40.18 C46.32 39.57, 34.45 37.32, 25.61 35.16 C16.78 33, 8.37 30.24, 4.36 27.21 C0.35 24.18, -0.27 20.14, 1.57 16.96 C3.42 13.79, 6.72 10.93, 15.45 8.14 C24.18 5.35, 45.47 1.62, 53.97 0.23 C62.46 -1.16, 66.06 -0.64, 66.44 -0.19 M74.92 0.37 C85.52 0.27, 97.78 0.84, 106.69 2.7 C115.59 4.56, 123.94 8.13, 128.36 11.53 C132.78 14.93, 134.53 19.57, 133.22 23.1 C131.92 26.62, 127.13 30.27, 120.54 32.66 C113.95 35.05, 103.79 36.28, 93.68 37.44 C83.57 38.6, 71.15 39.69, 59.89 39.62 C48.63 39.54, 35.06 38.86, 26.12 36.98 C17.18 35.11, 10.34 31.43, 6.26 28.34 C2.19 25.26, 0.66 21.9, 1.66 18.45 C2.66 15.01, 5.86 10.34, 12.27 7.68 C18.68 5.03, 29.51 3.95, 40.13 2.53 C50.75 1.12, 70.04 -0.35, 76.01 -0.82 C81.97 -1.28, 76.19 -0.55, 75.9 -0.27" stroke="#c92a2a" stroke-width="1" fill="none"></path></g><g stroke-linecap="round" transform="translate(1526.0146296911314 705.8621549562135) rotate(0 66.8833555961337 20.191201689398852)"><path d="M49.26 0.31 C59.21 -0.84, 72.15 -0.77, 82.82 0.12 C93.5 1, 105.05 3.13, 113.3 5.61 C121.56 8.1, 129.46 11.78, 132.36 15.02 C135.26 18.27, 133.62 21.89, 130.73 25.08 C127.83 28.28, 122.59 31.76, 114.97 34.2 C107.35 36.63, 95.78 38.89, 85.02 39.68 C74.25 40.46, 61.29 39.81, 50.4 38.9 C39.5 37.98, 27.49 36.45, 19.64 34.19 C11.78 31.92, 6.01 28.4, 3.25 25.31 C0.49 22.22, 0.53 18.86, 3.07 15.62 C5.62 12.39, 10.67 8.52, 18.54 5.91 C26.42 3.3, 44.4 0.71, 50.33 -0.04 C56.27 -0.78, 53.7 1.06, 54.16 1.44 M62.67 -1.37 C73.22 -2.01, 86.95 -0.47, 96.99 1.35 C107.03 3.17, 116.73 6.55, 122.9 9.55 C129.08 12.55, 133.29 16.3, 134.04 19.37 C134.78 22.44, 132.26 25.12, 127.38 27.97 C122.5 30.83, 114.3 34.32, 104.76 36.5 C95.22 38.68, 81.32 40.72, 70.13 41.06 C58.95 41.4, 47.33 40.03, 37.63 38.52 C27.94 37.01, 18.45 34.92, 11.98 32 C5.5 29.07, -0.3 24.3, -1.23 20.97 C-2.15 17.64, 1.04 15.12, 6.43 12 C11.83 8.89, 21.52 4.43, 31.14 2.3 C40.75 0.16, 58.76 -0.27, 64.11 -0.8 C69.46 -1.33, 63.43 -1.54, 63.22 -0.86" stroke="#c92a2a" stroke-width="1" fill="none"></path></g><g stroke-linecap="round" transform="translate(1526.0146296911314 739.5141577718782) rotate(0 66.8833555961337 20.191201689398852)"><path d="M52.14 -0.1 C62.18 -1.01, 76.17 -0.37, 87.08 0.8 C98 1.96, 110.24 4.39, 117.63 6.89 C125.02 9.4, 129.22 12.59, 131.43 15.82 C133.65 19.05, 134.18 23.05, 130.93 26.28 C127.68 29.52, 120.25 33.09, 111.95 35.23 C103.64 37.37, 92.1 38.48, 81.08 39.11 C70.07 39.74, 56.38 39.95, 45.86 39 C35.34 38.06, 25.23 35.79, 17.98 33.44 C10.73 31.09, 4.93 28.16, 2.37 24.89 C-0.2 21.62, -0.55 17.21, 2.58 13.83 C5.72 10.44, 12.36 6.73, 21.19 4.58 C30.02 2.43, 49.44 1.66, 55.55 0.95 C61.65 0.23, 57.7 0.12, 57.81 0.31 M71.4 -0.78 C82.13 -0.55, 94.95 1.77, 104.28 3.84 C113.61 5.9, 122.35 8.87, 127.38 11.61 C132.41 14.34, 135.07 17.03, 134.46 20.25 C133.84 23.46, 130.13 27.75, 123.69 30.88 C117.25 34.01, 105.91 37.42, 95.84 39.05 C85.76 40.68, 74.1 40.88, 63.23 40.65 C52.35 40.43, 40.23 39.7, 30.6 37.71 C20.97 35.72, 10.64 31.73, 5.44 28.73 C0.23 25.73, -1.78 23.2, -0.65 19.73 C0.48 16.26, 5.7 11.01, 12.21 7.92 C18.72 4.83, 28.54 2.74, 38.41 1.21 C48.28 -0.32, 66.06 -1.32, 71.43 -1.24 C76.81 -1.16, 70.94 1, 70.67 1.72" stroke="#c92a2a" stroke-width="1" fill="none"></path></g><g stroke-linecap="round"><g transform="translate(1524.3320295503484 694.0839539707309) rotate(0 -0.13978679931722127 33.21341297385749)"><path d="M-0.5 0.19 C-0.48 11.4, -0.48 55.14, -0.5 66.22 M1.44 -0.76 C1.32 10.65, -1.19 55.79, -1.72 67.19" stroke="#c92a2a" stroke-width="1" fill="none"></path></g></g><mask></mask><g stroke-linecap="round"><g transform="translate(1658.0987407426157 696.6078541819057) rotate(0 1.0637123567528306 32.97208067748994)"><path d="M-0.5 -1.08 C-0.39 9.86, 0.02 54.37, 0.2 65.83 M1.43 0.96 C1.99 12.03, 2.86 56.2, 2.58 67.03" stroke="#c92a2a" stroke-width="1" fill="none"></path></g></g><mask></mask><g transform="translate(1684.1790429247565 709.2273552377801) rotate(0 68.38333129882812 19.673742189033298)"><text x="0" y="0" font-family="Virgil, Segoe UI Emoji" font-size="31.477987502453278px" fill="#c92a2a" text-anchor="start" style="white-space: pre;" direction="ltr" dominant-baseline="text-before-edge">Postgres</text></g><g stroke-linecap="round" transform="translate(1516.634764270797 535.8096646596487) rotate(0 66.8833555961337 20.191201689398856)"><path d="M92.05 1.8 C102.18 2.7, 113.2 5, 120.16 7.5 C127.11 10, 132.34 13.31, 133.8 16.81 C135.27 20.32, 133.41 25.36, 128.93 28.52 C124.45 31.69, 115.79 33.99, 106.94 35.8 C98.1 37.61, 86.97 38.9, 75.88 39.41 C64.78 39.91, 50.87 39.89, 40.38 38.82 C29.88 37.75, 19.5 35.67, 12.89 32.99 C6.28 30.31, 1.94 26.11, 0.71 22.76 C-0.51 19.41, 1.32 16.03, 5.52 12.89 C9.73 9.74, 16.96 6.07, 25.93 3.87 C34.9 1.67, 47.09 -0.12, 59.33 -0.32 C71.57 -0.53, 91.95 1.76, 99.37 2.64 C106.79 3.51, 104.42 4.5, 103.87 4.91 M43.22 0.81 C52.53 -0.72, 66.17 -0.37, 77.01 0.39 C87.86 1.15, 99.65 3.15, 108.28 5.36 C116.9 7.58, 124.46 10.83, 128.75 13.69 C133.03 16.55, 135.51 19.12, 134 22.51 C132.49 25.89, 126.76 31.02, 119.67 34 C112.57 36.97, 102.08 39.56, 91.44 40.36 C80.79 41.15, 66.91 39.32, 55.81 38.77 C44.71 38.21, 33.23 39.17, 24.82 37.05 C16.4 34.92, 9.38 29.29, 5.32 26.02 C1.26 22.75, -1.15 20.67, 0.46 17.44 C2.07 14.21, 7.78 9.37, 14.99 6.62 C22.21 3.87, 39.17 1.74, 43.73 0.96 C48.3 0.19, 42.1 1.4, 42.38 1.99" stroke="#c92a2a" stroke-width="1" fill="none"></path></g><g stroke-linecap="round" transform="translate(1518.31736441158 563.5725669825721) rotate(0 66.8833555961337 20.191201689398856)"><path d="M63.95 -0.45 C74.71 -1.06, 88.36 -0.28, 98.31 1.44 C108.26 3.16, 117.82 6.95, 123.65 9.85 C129.49 12.75, 132.77 15.69, 133.3 18.83 C133.82 21.97, 131.98 25.63, 126.8 28.69 C121.62 31.76, 111.84 35.18, 102.23 37.23 C92.61 39.27, 80.09 40.8, 69.09 40.95 C58.09 41.1, 45.92 39.7, 36.21 38.13 C26.49 36.57, 16.91 34.44, 10.8 31.56 C4.69 28.67, -0.02 24.36, -0.42 20.83 C-0.82 17.31, 3.16 13.32, 8.4 10.39 C13.65 7.47, 20.26 4.85, 31.05 3.28 C41.84 1.72, 64.44 1.26, 73.15 1.02 C81.86 0.77, 83.44 1.52, 83.32 1.82 M84.23 0.86 C94.53 1.66, 105.95 4.37, 113.75 6.86 C121.55 9.35, 127.89 12.84, 131.01 15.81 C134.12 18.78, 135.16 21.38, 132.44 24.69 C129.73 28, 122.72 32.92, 114.71 35.65 C106.7 38.38, 95.43 40.6, 84.41 41.04 C73.39 41.48, 59.43 39.21, 48.59 38.3 C37.75 37.38, 26.93 37.95, 19.34 35.55 C11.75 33.15, 5.94 27.28, 3.05 23.9 C0.17 20.52, -0.8 18.42, 2.02 15.26 C4.83 12.1, 11.83 7.46, 19.95 4.97 C28.07 2.47, 40.16 0.95, 50.76 0.28 C61.36 -0.38, 77.96 0.64, 83.55 0.99 C89.14 1.33, 84.31 1.95, 84.29 2.38" stroke="#c92a2a" stroke-width="1" fill="none"></path></g><g stroke-linecap="round" transform="translate(1518.31736441158 597.2245697982368) rotate(0 66.8833555961337 20.191201689398856)"><path d="M74.91 -0.71 C85.61 -0.48, 98.15 2.4, 106.96 4.46 C115.77 6.52, 123.28 8.78, 127.77 11.64 C132.27 14.5, 135.21 18.21, 133.93 21.63 C132.65 25.05, 126.93 29.24, 120.09 32.19 C113.26 35.13, 103 37.93, 92.91 39.28 C82.83 40.63, 70.51 40.67, 59.6 40.28 C48.7 39.89, 36.58 38.99, 27.5 36.95 C18.41 34.91, 9.47 31.27, 5.1 28.03 C0.73 24.78, -0.07 20.74, 1.28 17.46 C2.63 14.17, 6.83 10.8, 13.19 8.32 C19.54 5.85, 28.69 3.81, 39.41 2.59 C50.14 1.38, 70.84 1.22, 77.53 1.05 C84.22 0.87, 79.67 1.32, 79.58 1.55 M54.41 1.18 C64.63 0.43, 78.25 1.08, 89.03 1.94 C99.81 2.79, 111.66 3.7, 119.07 6.34 C126.49 8.97, 131.64 14.07, 133.53 17.74 C135.41 21.41, 134.4 25.62, 130.37 28.37 C126.35 31.12, 118 32.11, 109.39 34.26 C100.77 36.4, 89.4 40.65, 78.68 41.23 C67.95 41.82, 55.58 39.05, 45.03 37.78 C34.48 36.51, 22.71 36.1, 15.39 33.61 C8.07 31.13, 2.9 26.32, 1.13 22.88 C-0.63 19.44, 1.19 15.93, 4.8 12.95 C8.4 9.98, 14.36 6.92, 22.76 5.02 C31.15 3.13, 49.65 2.16, 55.19 1.58 C60.73 1.01, 55.63 1.37, 55.99 1.6" stroke="#c92a2a" stroke-width="1" fill="none"></path></g><g stroke-linecap="round"><g transform="translate(1516.634764270797 551.7943659970895) rotate(0 -0.8248644792543018 33.485619650725276)"><path d="M0.27 0.02 C0.19 11.5, -0.36 56.7, -0.57 67.98 M-1.05 -1.01 C-1.33 10.19, -2.22 55.11, -1.82 66.22" stroke="#c92a2a" stroke-width="1" fill="none"></path></g></g><mask></mask><g stroke-linecap="round"><g transform="translate(1650.4014754630643 554.3182662082643) rotate(0 0.7163813195601278 33.454216358254854)"><path d="M-0.57 0.68 C-0.64 11.83, -0.5 56.03, -0.17 66.92 M1.33 -0.01 C1.6 10.77, 2.07 53.86, 2.02 65.03" stroke="#c92a2a" stroke-width="1" fill="none"></path></g></g><mask></mask><g transform="translate(1676.4817776452053 566.9377672641385) rotate(0 40.24166488647461 19.673742189033298)"><text x="0" y="0" font-family="Virgil, Segoe UI Emoji" font-size="31.477987502453278px" fill="#c92a2a" text-anchor="start" style="white-space: pre;" direction="ltr" dominant-baseline="text-before-edge">Redis</text></g><g stroke-linecap="round" transform="translate(1517.5969224307403 398.09928515025547) rotate(0 66.8833555961337 20.191201689398852)"><path d="M50.39 0.4 C60.63 -0.81, 75.1 -0.23, 85.64 0.74 C96.19 1.72, 105.96 3.76, 113.65 6.26 C121.34 8.76, 128.72 12.62, 131.79 15.75 C134.86 18.89, 135.06 21.98, 132.06 25.05 C129.06 28.12, 121.95 31.58, 113.8 34.16 C105.66 36.74, 93.92 39.53, 83.2 40.53 C72.49 41.53, 60.31 41.17, 49.51 40.18 C38.71 39.19, 26.15 37.09, 18.39 34.58 C10.62 32.08, 5.49 28.36, 2.92 25.16 C0.34 21.96, 0.21 18.48, 2.96 15.39 C5.72 12.31, 11.11 9.27, 19.45 6.68 C27.78 4.08, 46.72 0.95, 52.96 -0.16 C59.19 -1.27, 56.54 -0.23, 56.85 0.03 M79.53 0.03 C90.21 0.36, 102.55 3.7, 110.81 5.97 C119.06 8.24, 125.29 10.74, 129.07 13.67 C132.86 16.6, 135.21 20.24, 133.51 23.56 C131.81 26.89, 126.39 30.99, 118.89 33.65 C111.39 36.3, 99.34 38.4, 88.52 39.48 C77.69 40.55, 64.59 40.89, 53.94 40.11 C43.29 39.32, 33.08 36.76, 24.63 34.77 C16.19 32.78, 7.01 31.06, 3.29 28.16 C-0.43 25.27, 0.16 21.16, 2.3 17.4 C4.44 13.65, 8.87 8.45, 16.12 5.65 C23.36 2.85, 35.17 1.36, 45.78 0.6 C56.38 -0.16, 74.01 1.05, 79.73 1.07 C85.46 1.09, 80.67 0.48, 80.12 0.74" stroke="#c92a2a" stroke-width="1" fill="none"></path></g><g stroke-linecap="round" transform="translate(1519.2795225715233 425.8621874731789) rotate(0 66.8833555961337 20.191201689398852)"><path d="M93.52 1.56 C103.47 2.6, 112.47 5.38, 119.11 8.16 C125.76 10.94, 131.67 15.01, 133.38 18.22 C135.08 21.43, 133.65 24.5, 129.34 27.43 C125.03 30.36, 116.57 33.55, 107.51 35.81 C98.46 38.07, 86 40.42, 75.03 41.01 C64.05 41.6, 51.99 40.75, 41.64 39.36 C31.29 37.97, 19.64 35.46, 12.92 32.69 C6.21 29.91, 2.54 25.97, 1.33 22.69 C0.12 19.42, 1.61 15.96, 5.68 13.02 C9.74 10.07, 17.01 7.27, 25.74 5.03 C34.46 2.79, 46.25 0.18, 58.04 -0.42 C69.83 -1.03, 89.62 1.02, 96.48 1.41 C103.34 1.8, 99.69 1.52, 99.2 1.94 M88.43 2.18 C98.56 3, 108.51 4.74, 115.97 7.01 C123.43 9.29, 130.62 12.51, 133.19 15.82 C135.77 19.13, 135.21 23.61, 131.44 26.89 C127.67 30.17, 119.21 33.33, 110.57 35.52 C101.93 37.71, 90.18 39.51, 79.59 40.01 C68.99 40.52, 57.54 39.42, 47.01 38.56 C36.47 37.69, 23.79 37.06, 16.39 34.82 C8.99 32.59, 4.76 28.88, 2.62 25.15 C0.48 21.41, 0.05 15.83, 3.57 12.4 C7.08 8.97, 15.3 6.43, 23.72 4.55 C32.14 2.68, 43.16 1.75, 54.08 1.17 C65.01 0.58, 83.93 0.94, 89.27 1.03 C94.62 1.13, 86.81 1.32, 86.13 1.73" stroke="#c92a2a" stroke-width="1" fill="none"></path></g><g stroke-linecap="round" transform="translate(1519.2795225715233 459.5141902888435) rotate(0 66.8833555961337 20.191201689398852)"><path d="M57.78 0.39 C68.05 -0.19, 82.61 1.05, 93.14 2.23 C103.67 3.42, 114.29 5, 120.98 7.51 C127.67 10.02, 132.09 13.74, 133.26 17.3 C134.43 20.85, 132.26 25.6, 127.99 28.86 C123.72 32.12, 116.58 34.9, 107.62 36.83 C98.67 38.77, 85.26 40.15, 74.25 40.46 C63.25 40.77, 51.6 39.94, 41.57 38.68 C31.53 37.43, 20.97 35.46, 14.04 32.94 C7.11 30.42, 1.48 27.08, -0.01 23.54 C-1.51 20.01, 0.59 15.07, 5.08 11.73 C9.57 8.38, 16.07 5.57, 26.93 3.45 C37.8 1.33, 61.2 -0.55, 70.26 -0.97 C79.33 -1.39, 81.29 0.37, 81.3 0.95 M59.55 0.37 C70.03 -0.47, 84.88 0.14, 95.33 1.55 C105.79 2.96, 116.08 5.99, 122.29 8.82 C128.5 11.64, 131.82 15.19, 132.58 18.49 C133.35 21.78, 131.15 25.7, 126.86 28.58 C122.58 31.47, 115.89 33.65, 106.88 35.8 C97.87 37.94, 83.88 40.86, 72.81 41.47 C61.75 42.07, 50.49 41.25, 40.48 39.42 C30.46 37.59, 19.18 33.45, 12.71 30.48 C6.25 27.51, 2.69 24.57, 1.71 21.59 C0.72 18.61, 2.19 15.56, 6.81 12.6 C11.42 9.63, 20.69 5.82, 29.4 3.79 C38.11 1.77, 53.99 0.89, 59.08 0.43 C64.17 -0.02, 59.36 0.69, 59.93 1.08" stroke="#c92a2a" stroke-width="1" fill="none"></path></g><g stroke-linecap="round"><g transform="translate(1517.5969224307403 414.0839864876962) rotate(0 0.41247711860569325 33.93499503371771)"><path d="M-0.3 1.13 C-0.45 12.1, -0.08 55.16, 0.01 66.23 M1.75 0.67 C1.36 11.73, -0.58 55.82, -0.93 67.2" stroke="#c92a2a" stroke-width="1" fill="none"></path></g></g><mask></mask><g stroke-linecap="round"><g transform="translate(1651.3636336230077 416.6078866988711) rotate(0 -0.15807845717120017 32.79393321693708)"><path d="M0.01 -1.08 C0.25 9.85, 0.86 55.27, 1.12 66.67 M-1.44 0.97 C-1.31 12.02, -0.13 53.91, 0.32 64.65" stroke="#c92a2a" stroke-width="1" fill="none"></path></g></g><mask></mask><g transform="translate(1677.4439358051484 429.22738775474534) rotate(0 68.45833587646484 19.673742189033305)"><text x="0" y="0" font-family="Virgil, Segoe UI Emoji" font-size="31.477987502453278px" fill="#c92a2a" text-anchor="start" style="white-space: pre;" direction="ltr" dominant-baseline="text-before-edge">MongoDB</text></g><g stroke-linecap="round" transform="translate(1529.8733961745404 816.0412144781548) rotate(0 66.8833555961337 20.191201689398852)"><path d="M52.93 1.22 C63.21 0.56, 77.72 0.8, 88.33 1.79 C98.93 2.77, 109.39 4.81, 116.57 7.14 C123.75 9.47, 129.04 12.39, 131.39 15.77 C133.74 19.15, 133.89 24.17, 130.65 27.41 C127.4 30.65, 120.22 33.12, 111.94 35.21 C103.66 37.3, 91.84 39.11, 80.97 39.94 C70.1 40.77, 57.26 41.14, 46.72 40.17 C36.17 39.2, 25.15 36.62, 17.69 34.09 C10.23 31.56, 4.32 28.28, 1.96 24.98 C-0.39 21.67, 0.25 17.69, 3.59 14.26 C6.92 10.83, 13.43 6.87, 21.96 4.4 C30.48 1.93, 48.67 0.14, 54.76 -0.55 C60.86 -1.24, 58.15 -0.14, 58.54 0.25 M74.98 0.66 C85.63 0.88, 99.45 1.8, 108.35 3.62 C117.24 5.45, 124.02 8.29, 128.34 11.63 C132.66 14.96, 135.46 19.97, 134.26 23.64 C133.07 27.32, 128.32 31.25, 121.18 33.69 C114.05 36.13, 101.82 37.08, 91.47 38.28 C81.12 39.49, 70.03 41.43, 59.1 40.92 C48.17 40.41, 34.85 37.58, 25.89 35.24 C16.93 32.9, 9.4 30.1, 5.34 26.9 C1.29 23.7, 0.28 19.45, 1.55 16.03 C2.82 12.6, 6.49 8.65, 12.95 6.35 C19.41 4.05, 29.99 3.34, 40.31 2.23 C50.63 1.13, 68.84 -0.1, 74.88 -0.28 C80.93 -0.46, 76.33 0.65, 76.58 1.16" stroke="#c92a2a" stroke-width="1" fill="none"></path></g><g stroke-linecap="round" transform="translate(1531.5559963153235 843.8041168010782) rotate(0 66.8833555961337 20.191201689398852)"><path d="M37.98 2.89 C47.05 1.15, 60.29 0.44, 71.14 0.49 C81.99 0.53, 93.75 1.2, 103.06 3.15 C112.37 5.11, 121.85 9.16, 127 12.21 C132.15 15.27, 134.66 18.3, 133.95 21.49 C133.25 24.69, 128.9 28.46, 122.75 31.38 C116.61 34.31, 107.01 37.51, 97.07 39.07 C87.13 40.63, 74.25 40.99, 63.12 40.74 C51.99 40.49, 39.61 39.47, 30.3 37.59 C20.98 35.71, 12.29 32.71, 7.23 29.46 C2.17 26.22, -0.64 21.67, -0.06 18.11 C0.51 14.56, 3.42 10.99, 10.67 8.14 C17.91 5.29, 36.96 2.27, 43.42 1.02 C49.87 -0.22, 49.05 0.29, 49.38 0.69 M43.74 0.67 C53.4 -0.96, 66.16 -1.45, 77.28 -0.68 C88.39 0.09, 101.48 2.8, 110.43 5.28 C119.37 7.76, 127.32 11.25, 130.96 14.19 C134.59 17.12, 134.08 19.61, 132.24 22.87 C130.4 26.13, 126.89 31.17, 119.93 33.72 C112.97 36.28, 101.08 37.28, 90.49 38.19 C79.9 39.1, 67.25 39.84, 56.4 39.21 C45.55 38.57, 34.25 36.62, 25.38 34.39 C16.51 32.16, 7.49 28.64, 3.18 25.85 C-1.13 23.06, -2.26 20.8, -0.45 17.65 C1.36 14.49, 6.63 9.54, 14.05 6.91 C21.47 4.28, 38.89 2.64, 44.07 1.87 C49.24 1.1, 45.06 2.04, 45.1 2.29" stroke="#c92a2a" stroke-width="1" fill="none"></path></g><g stroke-linecap="round" transform="translate(1531.5559963153235 877.4561196167429) rotate(0 66.8833555961337 20.191201689398866)"><path d="M92.24 1.96 C102.13 2.73, 112.05 4.86, 118.89 7.61 C125.74 10.36, 131.63 15.09, 133.33 18.47 C135.03 21.84, 133.31 24.91, 129.08 27.86 C124.86 30.81, 116.77 33.98, 107.98 36.17 C99.2 38.35, 87.35 40.46, 76.36 40.98 C65.37 41.5, 52.34 40.58, 42.02 39.27 C31.7 37.96, 21.31 35.81, 14.46 33.13 C7.61 30.45, 2.51 26.77, 0.9 23.21 C-0.71 19.65, 0.72 15.05, 4.81 11.74 C8.9 8.43, 16.46 5.34, 25.44 3.36 C34.41 1.37, 46.74 0.14, 58.65 -0.16 C70.55 -0.46, 90.04 1.01, 96.88 1.57 C103.73 2.13, 100.44 2.93, 99.72 3.2 M76.76 -0.71 C87.49 -0.28, 101.02 2.72, 110.02 5.18 C119.02 7.64, 127.05 11.11, 130.77 14.04 C134.49 16.96, 134.07 19.45, 132.32 22.71 C130.57 25.97, 127.15 31.03, 120.26 33.6 C113.37 36.17, 101.54 37.19, 90.98 38.13 C80.43 39.07, 67.79 39.84, 56.92 39.23 C46.06 38.63, 34.72 36.7, 25.79 34.49 C16.87 32.29, 7.76 28.78, 3.37 26 C-1.02 23.22, -2.26 20.97, -0.54 17.81 C1.19 14.64, 6.36 9.68, 13.72 7.04 C21.07 4.39, 32.77 2.96, 43.58 1.93 C54.38 0.9, 73.21 1.04, 78.56 0.87 C83.9 0.69, 76.04 0.89, 75.65 0.87" stroke="#c92a2a" stroke-width="1" fill="none"></path></g><g stroke-linecap="round"><g transform="translate(1529.8733961745404 832.0259158155955) rotate(0 0.5374733783891088 34.539542099512204)"><path d="M0.93 0.89 C1.28 12.12, 1.02 56.37, 0.95 67.25 M-0.03 0.31 C0.33 11.75, 0.49 57.66, 0.5 68.76" stroke="#c92a2a" stroke-width="1" fill="none"></path></g></g><mask></mask><g stroke-linecap="round"><g transform="translate(1663.6401073668078 834.5498160267703) rotate(0 0.6838349351496618 32.59542058966886)"><path d="M0.95 -0.05 C1.03 10.69, 1.44 54.24, 1.38 65.36 M-0.01 -1.12 C-0.13 9.65, 0.77 54.78, 0.71 66.31" stroke="#c92a2a" stroke-width="1" fill="none"></path></g></g><mask></mask><g transform="translate(1689.7204095489485 847.1693170826446) rotate(0 68.38333129882812 19.673742189033305)"><text x="0" y="0" font-family="Virgil, Segoe UI Emoji" font-size="31.477987502453278px" fill="#c92a2a" text-anchor="start" style="white-space: pre;" direction="ltr" dominant-baseline="text-before-edge">Postgres</text></g><g stroke-linecap="round"><g transform="translate(1370.9991769590908 448.3951683431355) rotate(0 72.90124625140868 -0.3522748059907741)"><path d="M-0.97 -0.22 C23.66 -0.11, 122.1 0.62, 146.77 0.73 M0.73 -1.39 C25.31 -1.61, 121.73 -0.96, 146.05 -1.01" stroke="#000000" stroke-width="1" fill="none"></path></g><g transform="translate(1370.9991769590908 448.3951683431355) rotate(0 72.90124625140868 -0.3522748059907741)"><path d="M117.46 9.91 C125.26 8.35, 130.97 5.86, 145.17 0.55 M117.72 8.75 C126.4 6.36, 132.72 3.63, 145.82 -0.9" stroke="#000000" stroke-width="1" fill="none"></path></g><g transform="translate(1370.9991769590908 448.3951683431355) rotate(0 72.90124625140868 -0.3522748059907741)"><path d="M117.51 -10.62 C125.3 -7.66, 131 -5.63, 145.17 0.55 M117.78 -11.77 C126.45 -8.5, 132.75 -5.56, 145.82 -0.9" stroke="#000000" stroke-width="1" fill="none"></path></g></g><mask></mask><g stroke-linecap="round"><g transform="translate(1373.1670185538026 591.4727135941321) rotate(0 68.57355195943967 -0.14815534528120722)"><path d="M0.23 0.59 C23.1 0.6, 115.16 -0.96, 138.25 -0.88 M-1.11 -0.14 C21.57 0.08, 114.32 0.3, 137.62 0.19" stroke="#000000" stroke-width="1" fill="none"></path></g><g transform="translate(1373.1670185538026 591.4727135941321) rotate(0 68.57355195943967 -0.14815534528120722)"><path d="M110.42 11.46 C118.9 8.38, 132.91 1.19, 139.17 1.07 M109.6 11.09 C118.8 7.04, 128.42 4.55, 138.28 -0.22" stroke="#000000" stroke-width="1" fill="none"></path></g><g transform="translate(1373.1670185538026 591.4727135941321) rotate(0 68.57355195943967 -0.14815534528120722)"><path d="M110.41 -9.06 C118.73 -4.23, 132.75 -3.52, 139.17 1.07 M109.59 -9.43 C118.92 -6.71, 128.54 -2.43, 138.28 -0.22" stroke="#000000" stroke-width="1" fill="none"></path></g></g><mask></mask><g stroke-linecap="round"><g transform="translate(1373.1670185538026 729.1306548583484) rotate(0 72.38001462073385 -0.16879143088085158)"><path d="M0.57 0.69 C24.65 0.62, 121.43 0.76, 145.35 0.7 M-0.59 0 C23.27 0.1, 119.96 -0.75, 144.45 -1.05" stroke="#000000" stroke-width="1" fill="none"></path></g><g transform="translate(1373.1670185538026 729.1306548583484) rotate(0 72.38001462073385 -0.16879143088085158)"><path d="M117.51 9.66 C127.92 3.46, 137.82 3.08, 143.93 -2.09 M115.9 10.21 C122.6 7, 127.94 4.8, 144.32 -0.43" stroke="#000000" stroke-width="1" fill="none"></path></g><g transform="translate(1373.1670185538026 729.1306548583484) rotate(0 72.38001462073385 -0.16879143088085158)"><path d="M117.3 -10.86 C127.98 -9.4, 137.97 -2.12, 143.93 -2.09 M115.69 -10.32 C122.48 -9.15, 127.86 -6.96, 144.32 -0.43" stroke="#000000" stroke-width="1" fill="none"></path></g></g><mask></mask><g stroke-linecap="round"><g transform="translate(1373.1670185538026 870.040358514633) rotate(0 74.38002408583236 -0.4027811586856842)"><path d="M-0.42 0.3 C24.41 0.02, 124.56 -0.94, 149.18 -1.1 M1.55 -0.59 C26.27 -0.81, 123.93 -0.29, 148.6 -0.14" stroke="#000000" stroke-width="1" fill="none"></path></g><g transform="translate(1373.1670185538026 870.040358514633) rotate(0 74.38002408583236 -0.4027811586856842)"><path d="M120.85 11.11 C127.38 4.9, 137.01 2.86, 148.58 -0.21 M119.42 9.95 C127.2 8.26, 131.88 5.74, 148.32 0.01" stroke="#000000" stroke-width="1" fill="none"></path></g><g transform="translate(1373.1670185538026 870.040358514633) rotate(0 74.38002408583236 -0.4027811586856842)"><path d="M120.96 -9.41 C127.55 -9.15, 137.15 -4.71, 148.58 -0.21 M119.53 -10.57 C127.16 -7.95, 131.82 -6.17, 148.32 0.01" stroke="#000000" stroke-width="1" fill="none"></path></g></g><mask></mask><g stroke-linecap="round"><g transform="translate(10.167447754358875 833.3233471602624) rotate(0 84.25822577063894 -33.52766799763411)"><path d="M0.85 -0.36 C15.71 -11.38, 61.14 -66.41, 89.11 -66.7 C117.08 -66.98, 155.37 -12.86, 168.68 -2.05 M-0.17 -1.59 C14.51 -12.37, 59.89 -65.41, 87.92 -65.29 C115.95 -65.18, 154.43 -11.62, 168.03 -0.87" stroke="#000000" stroke-width="1" fill="none"></path></g></g><mask></mask><g stroke-linecap="round" transform="translate(51.097600076827234 667.8231660302815) rotate(0 42.41312885589116 40.04036640241472)"><path d="M35.61 1.31 C42.72 -0.53, 52.78 -0.42, 59.83 2.42 C66.88 5.25, 73.68 12.34, 77.91 18.34 C82.14 24.33, 85.05 31.34, 85.19 38.41 C85.34 45.48, 82.68 54.33, 78.75 60.74 C74.82 67.16, 68.46 73.59, 61.62 76.88 C54.78 80.17, 45.39 81.4, 37.71 80.49 C30.03 79.57, 21.59 76.06, 15.52 71.39 C9.45 66.73, 3.5 59.51, 1.28 52.5 C-0.94 45.5, -0.03 36.31, 2.19 29.37 C4.42 22.43, 8.25 15.62, 14.62 10.87 C21 6.11, 35.35 2.47, 40.44 0.84 C45.53 -0.79, 45.34 0.64, 45.16 1.07 M61.14 5.95 C67.97 8.55, 75.42 14.53, 79.12 20.7 C82.81 26.88, 83.47 35.86, 83.3 43.01 C83.13 50.15, 82.31 57.96, 78.09 63.57 C73.87 69.18, 65.25 74.18, 57.98 76.66 C50.72 79.14, 41.82 79.94, 34.5 78.45 C27.17 76.95, 19.41 72.74, 14.03 67.69 C8.64 62.65, 4.11 54.98, 2.16 48.17 C0.22 41.36, 0.14 33.5, 2.35 26.82 C4.56 20.14, 9.57 12.59, 15.44 8.08 C21.3 3.58, 29.74 0.37, 37.55 -0.18 C45.36 -0.74, 58.02 3.57, 62.3 4.74 C66.58 5.91, 63.61 6.11, 63.23 6.82" stroke="#000000" stroke-width="1" fill="none"></path></g><g stroke-linecap="round"><g transform="translate(1021.3319020349456 1138.2223704066287) rotate(0 31.308479937896323 0.6833710045478938)"><path d="M0.2 -0.7 C10.81 -0.33, 53.07 1.86, 63.78 2.06 M-1.16 1.55 C9.3 1.59, 52.04 0.39, 62.91 0.38" stroke="#000000" stroke-width="1" fill="none"></path></g><g transform="translate(1021.3319020349456 1138.2223704066287) rotate(0 31.308479937896323 0.6833710045478938)"><path d="M33.73 11.36 C44.95 9.08, 51.03 4.71, 64.43 0.62 M35.79 11.68 C43.63 7.28, 52.39 4.04, 62.75 -0.03" stroke="#000000" stroke-width="1" fill="none"></path></g><g transform="translate(1021.3319020349456 1138.2223704066287) rotate(0 31.308479937896323 0.6833710045478938)"><path d="M33.4 -9.16 C44.71 -5.1, 50.88 -3.12, 64.43 0.62 M35.46 -8.84 C43.58 -7.03, 52.44 -4.07, 62.75 -0.03" stroke="#000000" stroke-width="1" fill="none"></path></g></g><mask></mask><g stroke-linecap="round"><g transform="translate(1020.1017093198448 1006.5917498908327) rotate(0 31.76273950351799 0.6312392255356372)"><path d="M0.25 0.11 C11.12 0.5, 53.93 2.03, 64.6 2.15 M-1.07 -0.88 C9.77 -0.79, 53.34 0.04, 64.17 0.5" stroke="#000000" stroke-width="1" fill="none"></path></g><g transform="translate(1020.1017093198448 1006.5917498908327) rotate(0 31.76273950351799 0.6312392255356372)"><path d="M35.87 11.58 C44.36 8.64, 49.24 5.59, 63.62 1.72 M35.84 10.84 C46.1 6.73, 56.8 3.59, 65.04 0.3" stroke="#000000" stroke-width="1" fill="none"></path></g><g transform="translate(1020.1017093198448 1006.5917498908327) rotate(0 31.76273950351799 0.6312392255356372)"><path d="M36.46 -8.93 C44.77 -6.73, 49.5 -4.65, 63.62 1.72 M36.44 -9.67 C46.29 -6.12, 56.76 -1.59, 65.04 0.3" stroke="#000000" stroke-width="1" fill="none"></path></g></g><mask></mask><g stroke-linecap="round"><g transform="translate(1020.1017093198448 868.8101657995323) rotate(0 31.502744790897054 0.5017862841881282)"><path d="M-0.03 0.52 C10.55 0.8, 53.85 1.23, 64.51 1.5 M-1.5 -0.25 C8.9 -0.34, 53.23 -0.57, 64.03 -0.48" stroke="#000000" stroke-width="1" fill="none"></path></g><g transform="translate(1020.1017093198448 868.8101657995323) rotate(0 31.502744790897054 0.5017862841881282)"><path d="M36.7 11.25 C47.24 6.27, 59.29 3.25, 63.39 -2.2 M36.02 9.16 C41.28 7.52, 47.44 6.32, 64.39 -0.05" stroke="#000000" stroke-width="1" fill="none"></path></g><g transform="translate(1020.1017093198448 868.8101657995323) rotate(0 31.502744790897054 0.5017862841881282)"><path d="M36.71 -9.27 C47.22 -6.29, 59.27 -1.35, 63.39 -2.2 M36.03 -11.37 C41.43 -8.81, 47.59 -5.82, 64.39 -0.05" stroke="#000000" stroke-width="1" fill="none"></path></g></g><mask></mask><g stroke-linecap="round"><g transform="translate(1020.1017093198448 739.639930713938) rotate(0 30.945479225501686 1.029631071390554)"><path d="M-0.11 0.94 C10.45 1.04, 52.92 0.27, 63.52 0.51 M-1.63 0.39 C8.75 0.63, 51.81 1.63, 62.52 1.67" stroke="#000000" stroke-width="1" fill="none"></path></g><g transform="translate(1020.1017093198448 739.639930713938) rotate(0 30.945479225501686 1.029631071390554)"><path d="M35.75 11.35 C41.88 8.2, 53.83 5.69, 60.64 0.47 M33.31 12.15 C43.54 8.63, 55.14 3.73, 62.56 1.52" stroke="#000000" stroke-width="1" fill="none"></path></g><g transform="translate(1020.1017093198448 739.639930713938) rotate(0 30.945479225501686 1.029631071390554)"><path d="M36.06 -9.16 C42.07 -5.88, 53.93 -1.95, 60.64 0.47 M33.61 -8.36 C43.71 -4.64, 55.21 -2.3, 62.56 1.52" stroke="#000000" stroke-width="1" fill="none"></path></g></g><mask></mask><g stroke-linecap="round"><g transform="translate(1020.1017093198448 595.7073830471331) rotate(0 31.216698576453496 0.15119962245409013)"><path d="M-0.75 -0.16 C9.97 -0.06, 52.39 0.34, 63.18 0.46 M1.06 -1.3 C11.68 -1.04, 51.61 1.13, 62.01 1.6" stroke="#000000" stroke-width="1" fill="none"></path></g><g transform="translate(1020.1017093198448 595.7073830471331) rotate(0 31.216698576453496 0.15119962245409013)"><path d="M33.07 9.72 C37.95 9.48, 43.99 5.31, 60.54 2.61 M34.24 10.13 C43.04 7.64, 53.09 4.73, 61.38 1.78" stroke="#000000" stroke-width="1" fill="none"></path></g><g transform="translate(1020.1017093198448 595.7073830471331) rotate(0 31.216698576453496 0.15119962245409013)"><path d="M34.09 -10.77 C38.73 -6.82, 44.57 -6.79, 60.54 2.61 M35.26 -10.37 C43.91 -5.69, 53.6 -1.42, 61.38 1.78" stroke="#000000" stroke-width="1" fill="none"></path></g></g><mask></mask><g stroke-linecap="round"><g transform="translate(1020.1017093198448 446.8540645199246) rotate(0 31.567311463234205 0.5204777703871599)"><path d="M0.01 -0.81 C10.62 -0.54, 51.98 0.25, 62.47 0.63 M-1.45 1.37 C9.62 1.88, 54.04 1.59, 64.58 1.85" stroke="#000000" stroke-width="1" fill="none"></path></g><g transform="translate(1020.1017093198448 446.8540645199246) rotate(0 31.567311463234205 0.5204777703871599)"><path d="M34.96 10 C41.11 8.72, 48.26 8.76, 65.96 1.91 M36.32 12.68 C45.19 9.43, 55.47 5.12, 65.34 2.63" stroke="#000000" stroke-width="1" fill="none"></path></g><g transform="translate(1020.1017093198448 446.8540645199246) rotate(0 31.567311463234205 0.5204777703871599)"><path d="M35.11 -10.52 C41.06 -7.66, 48.18 -3.47, 65.96 1.91 M36.47 -7.84 C45.1 -4.27, 55.32 -1.77, 65.34 2.63" stroke="#000000" stroke-width="1" fill="none"></path></g></g><mask></mask><g stroke-linecap="round" transform="translate(1950.727510225541 676.4830215999041) rotate(0 107.90018079965739 13.145199691328855)"><path d="M90.81 0.89 C105.08 0.35, 124.23 -0.59, 139.29 -0.3 C154.36 0, 169.73 1.16, 181.2 2.65 C192.68 4.13, 202.3 6.78, 208.15 8.63 C214 10.47, 217.5 11.85, 216.31 13.72 C215.12 15.59, 208.97 18.22, 201 19.85 C193.02 21.49, 181.15 22.42, 168.45 23.55 C155.75 24.68, 140.16 26.4, 124.79 26.62 C109.42 26.84, 91.23 25.53, 76.23 24.87 C61.24 24.2, 46.18 23.89, 34.83 22.63 C23.47 21.37, 13.75 19.12, 8.1 17.29 C2.45 15.47, -0.05 13.5, 0.91 11.68 C1.88 9.85, 6.27 7.97, 13.89 6.33 C21.51 4.68, 33.05 2.71, 46.63 1.81 C60.21 0.9, 86.59 1.04, 95.36 0.9 C104.13 0.77, 99.23 0.97, 99.25 1.01 M138.47 0.17 C152.9 0.38, 167.7 0.94, 179.12 2.42 C190.55 3.89, 200.82 7.08, 207.04 9.03 C213.27 10.99, 217.08 12.15, 216.47 14.14 C215.86 16.13, 211.19 19.44, 203.36 20.97 C195.54 22.5, 182.45 22.48, 169.5 23.34 C156.55 24.19, 140.71 25.56, 125.66 26.11 C110.6 26.66, 94.12 27.14, 79.15 26.63 C64.17 26.12, 47.69 24.23, 35.81 23.06 C23.93 21.88, 13.67 21.17, 7.88 19.6 C2.09 18.03, 0.02 15.77, 1.09 13.65 C2.17 11.52, 6.84 8.94, 14.34 6.86 C21.85 4.77, 33.55 2.16, 46.12 1.15 C58.7 0.13, 74.38 1.06, 89.78 0.75 C105.19 0.44, 130.79 -0.65, 138.55 -0.72 C146.32 -0.79, 136.83 -0.18, 136.4 0.32" stroke="#e67700" stroke-width="1" fill="none"></path></g><g stroke-linecap="round" transform="translate(1951.822943533152 1167.237143409514) rotate(0 107.90018079965739 13.145199691328855)"><path d="M59.86 2.17 C72.51 1.29, 90.56 1, 106.08 0.99 C121.6 0.98, 138.79 1.63, 152.99 2.11 C167.18 2.58, 181.44 2.49, 191.24 3.85 C201.05 5.22, 208.02 8.47, 211.82 10.32 C215.61 12.16, 217.18 13.29, 214 14.95 C210.82 16.61, 202.55 18.5, 192.75 20.29 C182.95 22.09, 168.92 24.58, 155.2 25.7 C141.47 26.82, 125.86 27.26, 110.37 27.03 C94.88 26.8, 76.58 25.27, 62.26 24.32 C47.93 23.37, 34.35 22.54, 24.43 21.31 C14.51 20.08, 6.42 18.72, 2.74 16.94 C-0.95 15.16, -1.1 12.52, 2.31 10.65 C5.73 8.78, 12.18 7.49, 23.22 5.71 C34.25 3.94, 59.2 0.86, 68.51 0 C77.82 -0.87, 78.17 0.03, 79.06 0.53 M149.24 0.03 C163.25 0.46, 177.59 2.57, 188.23 4.07 C198.87 5.57, 208.97 6.93, 213.09 9.02 C217.21 11.12, 215.99 14.88, 212.95 16.64 C209.9 18.4, 203.82 18.46, 194.83 19.6 C185.83 20.74, 172.72 22.29, 158.97 23.48 C145.22 24.67, 127.75 26.56, 112.32 26.75 C96.9 26.95, 80.84 25.45, 66.4 24.66 C51.97 23.87, 36.26 23.47, 25.71 22.02 C15.16 20.57, 6.96 17.71, 3.1 15.95 C-0.76 14.2, -0.34 13.47, 2.57 11.49 C5.48 9.52, 11.46 5.82, 20.56 4.12 C29.66 2.42, 43.25 2.14, 57.18 1.29 C71.11 0.43, 88.43 -0.85, 104.15 -1.02 C119.88 -1.19, 144.04 -0.03, 151.53 0.29 C159.02 0.61, 150.02 0.69, 149.09 0.9" stroke="#e67700" stroke-width="1" fill="none"></path></g><g stroke-linecap="round"><g transform="translate(1952.9183768407627 689.6282212912329) rotate(0 -0.139691958616595 247.30635940486442)"><path d="M0.9 0.68 C0.91 82.85, 0.04 410.8, -0.15 493.03 M-0.09 0 C-0.22 82.38, -1 412.56, -1.18 494.62" stroke="#e67700" stroke-width="1" fill="none"></path></g></g><mask></mask><g stroke-linecap="round"><g transform="translate(2166.5278718248564 690.7236545988436) rotate(0 -0.40063128818587757 244.79401363692656)"><path d="M0.07 -0.11 C0.32 81.35, 0.61 407.9, 0.54 489.78 M-1.35 -1.22 C-1.12 80.89, -0.14 409.09, -0.13 490.81" stroke="#e67700" stroke-width="1" fill="none"></path></g></g><mask></mask><g transform="translate(1980.3042095310304 930.623548965595) rotate(0 83.08333587646484 22.5)"><text x="0" y="0" font-family="Virgil, Segoe UI Emoji" font-size="36px" fill="#e67700" text-anchor="start" style="white-space: pre;" direction="ltr" dominant-baseline="text-before-edge">RabbitMQ</text></g><g stroke-linecap="round"><g transform="translate(1365.7661239614076 771.7857193620381) rotate(0 293.02035648463936 10.645216060400728)"><path d="M0.69 0.75 C98.27 3.97, 488.72 16.45, 586.45 19.67 M-0.41 0.1 C96.97 3.49, 487.83 18.21, 585.72 21.19" stroke="#e67700" stroke-width="1" fill="none"></path></g><g transform="translate(1365.7661239614076 771.7857193620381) rotate(0 293.02035648463936 10.645216060400728)"><path d="M558.44 31.13 C567.84 28.55, 579.29 22.74, 586.2 22.37 M556.56 30.26 C563.05 28.13, 570.61 26.3, 584.88 20.41" stroke="#e67700" stroke-width="1" fill="none"></path></g><g transform="translate(1365.7661239614076 771.7857193620381) rotate(0 293.02035648463936 10.645216060400728)"><path d="M559.15 10.62 C568.34 15.78, 579.53 17.7, 586.2 22.37 M557.27 9.75 C563.79 12.45, 571.18 15.45, 584.88 20.41" stroke="#e67700" stroke-width="1" fill="none"></path></g></g><mask></mask><g stroke-linecap="round"><g transform="translate(1359.1935241157432 913.0966160438231) rotate(0 298.118172459799 14.876372647016296)"><path d="M-0.42 1.14 C98.98 6.04, 497.1 24.47, 596.66 29.06 M1.56 0.7 C100.85 5.27, 496.91 22.34, 596.1 27.24" stroke="#e67700" stroke-width="1" fill="none"></path></g><g transform="translate(1359.1935241157432 913.0966160438231) rotate(0 298.118172459799 14.876372647016296)"><path d="M569.38 37.44 C577.61 35.15, 586.08 29.19, 595.72 26.49 M568.43 35.24 C576.22 33.68, 583.47 31.79, 595.21 27.19" stroke="#e67700" stroke-width="1" fill="none"></path></g><g transform="translate(1359.1935241157432 913.0966160438231) rotate(0 298.118172459799 14.876372647016296)"><path d="M570.31 16.94 C578.19 21.2, 586.36 21.79, 595.72 26.49 M569.37 14.74 C576.81 19.21, 583.78 23.35, 595.21 27.19" stroke="#e67700" stroke-width="1" fill="none"></path></g></g><mask></mask><g stroke-linecap="round"><g transform="translate(1369.05242388424 1008.3993138059571) rotate(0 290.8981100171228 -0.643009896102825)"><path d="M1.17 0 C98.05 0.05, 484.61 0.38, 581.47 0.39 M0.33 -1.04 C97.01 -1.38, 483.48 -1.94, 580.41 -1.53" stroke="#e67700" stroke-width="1" fill="none"></path></g><g transform="translate(1369.05242388424 1008.3993138059571) rotate(0 290.8981100171228 -0.643009896102825)"><path d="M552.21 8.36 C561.81 6.28, 570.26 1.28, 582 -1.68 M552.94 7.89 C557.45 6.66, 564 3.69, 581.17 -1.43" stroke="#e67700" stroke-width="1" fill="none"></path></g><g transform="translate(1369.05242388424 1008.3993138059571) rotate(0 290.8981100171228 -0.643009896102825)"><path d="M552.23 -12.16 C561.84 -7.72, 570.28 -6.21, 582 -1.68 M552.96 -12.64 C557.41 -9.53, 563.96 -8.16, 581.17 -1.43" stroke="#e67700" stroke-width="1" fill="none"></path></g></g><mask></mask><g stroke-linecap="round"><g transform="translate(1370.1478571918506 1148.6147771801316) rotate(0 291.3445153191336 -0.15235941686668752)"><path d="M0.53 0.17 C97.87 0.16, 486.18 -0.72, 583.33 -0.7 M-0.64 -0.78 C96.55 -0.59, 484.93 0.05, 582.1 0.48" stroke="#e67700" stroke-width="1" fill="none"></path></g><g transform="translate(1370.1478571918506 1148.6147771801316) rotate(0 291.3445153191336 -0.15235941686668752)"><path d="M554.17 9.77 C559.6 7.33, 568.07 6.13, 582.34 -1.07 M553.26 10.36 C561.81 7, 567.9 6.1, 581.22 0.62" stroke="#e67700" stroke-width="1" fill="none"></path></g><g transform="translate(1370.1478571918506 1148.6147771801316) rotate(0 291.3445153191336 -0.15235941686668752)"><path d="M554.23 -10.75 C559.53 -8.23, 567.99 -4.47, 582.34 -1.07 M553.32 -10.17 C561.86 -8.22, 567.94 -3.83, 581.22 0.62" stroke="#e67700" stroke-width="1" fill="none"></path></g></g><mask></mask><g stroke-linecap="round" transform="translate(702.6150238611963 230.23318186639352) rotate(0 775.7257934529665 532.3470861037989)"><path d="M32 0 M32 0 C429.94 0.29, 828.67 0.51, 1519.45 0 M1519.45 0 C1541.69 0.76, 1549.87 11.34, 1551.45 32 M1551.45 32 C1552.1 414.96, 1551.86 798.27, 1551.45 1032.69 M1551.45 1032.69 C1550.72 1052.08, 1539.15 1064.13, 1519.45 1064.69 M1519.45 1064.69 C958.14 1062.19, 397.18 1061.47, 32 1064.69 M32 1064.69 C11.19 1065.08, -1.06 1054.55, 0 1032.69 M0 1032.69 C2.65 785.82, 1.44 537.29, 0 32 M0 32 C-0.42 9.48, 11.18 -1.19, 32 0" stroke="#000000" stroke-width="1.5" fill="none" stroke-dasharray="8 9"></path></g><g transform="translate(786.7805710712832 307.38493347564) rotate(0 130.26666259765625 22.5)"><text x="0" y="0" font-family="Virgil, Segoe UI Emoji" font-size="36px" fill="#000000" text-anchor="start" style="white-space: pre;" direction="ltr" dominant-baseline="text-before-edge">Micro-services </text></g><g transform="translate(650.7129364149762 10) rotate(0 316.3333435058594 37.22897076176508)"><text x="0" y="0" font-family="Virgil, Segoe UI Emoji" font-size="59.566353218824155px" fill="#000000" text-anchor="start" style="white-space: pre;" direction="ltr" dominant-baseline="text-before-edge">PolyShop Architecture</text></g><g stroke-linecap="round"><g transform="translate(629.6715496124546 753.4623336891) rotate(0 79.49492162088944 0.28725986070292464)"><path d="M-0.01 -0.15 C26.56 -0.23, 132.5 0.43, 159 0.73" stroke="#000000" stroke-width="1.5" fill="none" stroke-dasharray="8 9"></path></g><g transform="translate(629.6715496124546 753.4623336891) rotate(0 79.49492162088944 0.28725986070292464)"><path d="M130.47 9.23 C137.09 6.46, 146.24 4.11, 159.65 1.62" stroke="#000000" stroke-width="1.5" fill="none"></path></g><g transform="translate(629.6715496124546 753.4623336891) rotate(0 79.49492162088944 0.28725986070292464)"><path d="M130.64 -11.29 C137.41 -8.56, 146.52 -5.4, 159.65 1.62" stroke="#000000" stroke-width="1.5" fill="none"></path></g></g><mask></mask><g transform="translate(61.55410594436876 874.0996180235577) rotate(0 37.59166717529297 22.5)"><text x="0" y="0" font-family="Virgil, Segoe UI Emoji" font-size="36px" fill="#000000" text-anchor="start" style="white-space: pre;" direction="ltr" dominant-baseline="text-before-edge">user</text></g><g stroke-linecap="round"><g transform="translate(180.7886311586583 761.8788884101086) rotate(0 106.84232142783492 -3.4580321542964043)"><path d="M0.61 0.9 C36.05 -0.54, 176.61 -6.39, 212.1 -7.82 M-0.53 0.33 C35.31 -1.06, 178.64 -5.53, 214.22 -6.71" stroke="#000000" stroke-width="1" fill="none"></path></g><g transform="translate(180.7886311586583 761.8788884101086) rotate(0 106.84232142783492 -3.4580321542964043)"><path d="M187.88 2.58 C192.02 1.99, 199.33 0.01, 212.8 -4.74 M187.35 5.23 C194.76 1.45, 201.09 -1.05, 213.39 -7.24" stroke="#000000" stroke-width="1" fill="none"></path></g><g transform="translate(180.7886311586583 761.8788884101086) rotate(0 106.84232142783492 -3.4580321542964043)"><path d="M187.22 -17.93 C191.68 -13.31, 199.16 -10.07, 212.8 -4.74 M186.69 -15.28 C194.35 -13.36, 200.87 -10.17, 213.39 -7.24" stroke="#000000" stroke-width="1" fill="none"></path></g></g><mask></mask></svg>